<svg xmlns="http://www.w3.org/2000/svg" viewBox="0 0 72 90" x="0px" y="0px"><title>line</title><g data-name="Layer 25"><path d="M29.99219,56.73438a2.97722,2.97722,0,0,1-1.91211-.69922L14.47168,44.69531A3.00326,3.00326,0,0,0,12.55176,44H8a5.00588,5.00588,0,0,1-5-5V33a5.00588,5.00588,0,0,1,5-5h4.55176a3.00787,3.00787,0,0,0,1.9209-.69531L28.0791,15.96484A3.00084,3.00084,0,0,1,33,18.27051v35.459a2.973,2.973,0,0,1-1.72754,2.7168A3.00777,3.00777,0,0,1,29.99219,56.73438ZM8,30a3.00328,3.00328,0,0,0-3,3v6a3.00328,3.00328,0,0,0,3,3h4.55176A5.00826,5.00826,0,0,1,15.752,43.1582l13.6084,11.33985A.99959.99959,0,0,0,31,53.72949v-35.459a1.00013,1.00013,0,0,0-1.64062-.76856L15.75293,28.8418A5.01287,5.01287,0,0,1,12.55176,30Z"/><path d="M41,59a4.004,4.004,0,0,1-4-4V17a4,4,0,0,1,8,0V55A4.004,4.004,0,0,1,41,59Zm0-44a2.0026,2.0026,0,0,0-2,2V55a2,2,0,0,0,4,0V17A2.0026,2.0026,0,0,0,41,15Z"/><path d="M53,54a4.004,4.004,0,0,1-4-4V22a4,4,0,0,1,8,0V50A4.004,4.004,0,0,1,53,54Zm0-34a2.0026,2.0026,0,0,0-2,2V50a2,2,0,0,0,4,0V22A2.0026,2.0026,0,0,0,53,20Z"/><path d="M65,45a4.004,4.004,0,0,1-4-4V31a4,4,0,0,1,8,0V41A4.004,4.004,0,0,1,65,45Zm0-16a2.0026,2.0026,0,0,0-2,2V41a2,2,0,0,0,4,0V31A2.0026,2.0026,0,0,0,65,29Z"/></g></svg>