<svg xmlns="http://www.w3.org/2000/svg" version="1.1" viewBox="-5.0 -10.0 110.0 135.0">
 <g>
  <path d="m49.992 31.242c-10.316 0-18.73 8.4336-18.73 18.75 0 10.316 8.4141 18.758 18.73 18.758 10.316 0 18.75-8.4375 18.75-18.758 0-10.316-8.4336-18.75-18.75-18.75z"/>
  <path d="m54.688 17.188c0 2.5898-2.1016 4.6875-4.6875 4.6875-1.2461 0-2.4375-0.49609-3.3164-1.375s-1.3711-2.0703-1.3711-3.3125 0.49219-2.4375 1.3711-3.3164 2.0703-1.3711 3.3164-1.3711c2.5859 0 4.6875 2.0977 4.6875 4.6875z"/>
  <path d="m82.809 54.688c-2.5859 0-4.6875-2.0977-4.6875-4.6875s2.1016-4.6875 4.6875-4.6875c1.2461 0 2.4375 0.49219 3.3164 1.3711s1.3711 2.0742 1.3711 3.3164-0.49219 2.4336-1.3711 3.3125-2.0703 1.375-3.3164 1.375z"/>
  <path d="m45.309 82.812c0-1.2422 0.49609-2.4375 1.375-3.3164s2.0703-1.3711 3.3125-1.3711c2.5898 0 4.6875 2.0977 4.6875 4.6875s-2.0977 4.6875-4.6875 4.6875c-1.2422 0-2.4336-0.49609-3.3125-1.375s-1.375-2.0703-1.375-3.3125z"/>
  <path d="m17.188 45.312c1.2422 0 2.4336 0.49219 3.3125 1.3711s1.375 2.0742 1.375 3.3164-0.49609 2.4336-1.375 3.3125-2.0703 1.375-3.3125 1.375c-1.2461 0-2.4375-0.49609-3.3164-1.375s-1.3711-2.0703-1.3711-3.3125 0.49219-2.4375 1.3711-3.3164 2.0703-1.3711 3.3164-1.3711z"/>
  <path d="m30.109 23.484c0.87891 0.87891 1.375 2.0703 1.375 3.3125s-0.49609 2.4375-1.375 3.3164c-1.8281 1.8281-4.7969 1.8281-6.6289 0-1.8281-1.832-1.8281-4.8008 0-6.6289 1.832-1.832 4.8008-1.832 6.6289 0z"/>
  <path d="m76.516 30.113c-0.87891 0.87891-2.0742 1.3711-3.3164 1.3711-1.2422 0-2.4336-0.49219-3.3125-1.3711-0.87891-0.87891-1.375-2.0742-1.375-3.3164s0.49609-2.4336 1.375-3.3125c0.87891-0.87891 2.0703-1.375 3.3125-1.375 1.2422 0 2.4375 0.49609 3.3164 1.375s1.3711 2.0703 1.3711 3.3125-0.49219 2.4375-1.3711 3.3164z"/>
  <path d="m69.887 76.516c-0.87891-0.87891-1.375-2.0703-1.375-3.3125 0-1.2461 0.49609-2.4375 1.375-3.3164 0.87891-0.87891 2.0703-1.3711 3.3125-1.3711 1.2422 0 2.4375 0.49219 3.3164 1.3711 0.87891 0.87891 1.3711 2.0703 1.3711 3.3164 0 1.2422-0.49219 2.4336-1.3711 3.3125s-2.0742 1.375-3.3164 1.375c-1.2422 0-2.4336-0.49609-3.3125-1.375z"/>
  <path d="m23.48 69.887c1.832-1.832 4.8008-1.832 6.6289 0 1.832 1.832 1.832 4.7969 0 6.6289-0.87891 0.87891-2.0703 1.375-3.3125 1.375s-2.4375-0.49609-3.3164-1.375c-0.87891-0.87891-1.3711-2.0703-1.3711-3.3125 0-1.2461 0.49219-2.4375 1.3711-3.3164z"/>
 </g>
</svg>