<svg xmlns="http://www.w3.org/2000/svg" viewBox="0 0 72 90" x="0px" y="0px"><title>glyph</title><g data-name="Layer 25"><path d="M37,31V41a4,4,0,0,0,8,0V31a4,4,0,0,0-8,0Z"/><path d="M65,13a3.99887,3.99887,0,0,0-4,4V55a4,4,0,0,0,8,0V17A3.99887,3.99887,0,0,0,65,13Z"/><path d="M49,22V50a4,4,0,0,0,8,0V22a4,4,0,0,0-8,0Z"/><path d="M8,44h4.55a3.00434,3.00434,0,0,1,1.92.7L28.08,56.04a2.972,2.972,0,0,0,1.91.69,3.04916,3.04916,0,0,0,1.28-.28A2.96985,2.96985,0,0,0,33,53.73V18.27a3.00187,3.00187,0,0,0-4.92-2.31L14.47,27.3a3.00434,3.00434,0,0,1-1.92.7H8a5.00181,5.00181,0,0,0-5,5v6A5.00181,5.00181,0,0,0,8,44Z"/></g></svg>