<svg xmlns="http://www.w3.org/2000/svg" version="1.1" viewBox="-5.0 -10.0 110.0 135.0">
 <path d="m15.426 12.875h63.023c2.8672 0 5.4766 1.1719 7.3633 3.0625 1.2422 1.2422 2.1719 2.7891 2.6641 4.5195 1.8242 0.74219 3.3945 1.9844 4.5352 3.5586 1.25 1.7188 1.9883 3.8281 1.9883 6.1055v46.582c0 2.8672-1.1719 5.4766-3.0625 7.3633-1.8906 1.8906-4.4961 3.0625-7.3633 3.0625l-63.02-0.003906c-2.4727 0-4.7539-0.875-6.5508-2.332-1.6445-1.332-2.875-3.1562-3.4727-5.2422-1.3086-0.53125-2.4844-1.3203-3.4688-2.3008-1.8906-1.8906-3.0625-4.4961-3.0625-7.3633v-46.586c0-2.8672 1.1719-5.4766 3.0625-7.3633 1.8906-1.8906 4.4961-3.0625 7.3633-3.0625zm63.023 2.543-63.023-0.003907c-2.168 0-4.1367 0.88672-5.5664 2.3164-1.4297 1.4297-2.3164 3.3984-2.3164 5.5664v46.582c0 2.168 0.88672 4.1367 2.3164 5.5664 1.4297 1.4297 3.3984 2.3164 5.5664 2.3164h63.023c2.168 0 4.1367-0.88672 5.5664-2.3164 1.4297-1.4297 2.3164-3.3984 2.3164-5.5664v-46.578c0-2.168-0.88672-4.1367-2.3164-5.5664s-3.3984-2.3164-5.5664-2.3164zm-20.031 34.211c0.55078-0.31641 0.98828-0.75781 1.2891-1.2773v-0.003906c0.30469-0.52734 0.46484-1.1211 0.46484-1.7539s-0.16016-1.2266-0.46484-1.7539v-0.003906c-0.30078-0.51953-0.73828-0.96094-1.2891-1.2773l-9.7227-5.6133h-0.003906l-9.7188-5.6133v-0.003906c-0.55469-0.32031-1.1523-0.48047-1.7539-0.48047s-1.1992 0.16016-1.7539 0.48047c-0.55078 0.31641-0.98828 0.75781-1.2891 1.2773-0.30469 0.52734-0.46484 1.125-0.46484 1.7578v22.457c0 0.63281 0.16016 1.2305 0.46484 1.7578 0.30078 0.51953 0.73828 0.96094 1.2891 1.2773 0.55859 0.32031 1.1562 0.48047 1.7539 0.48047 0.60156 0 1.1992-0.16016 1.7539-0.48047v-0.003907l9.7188-5.6133h0.003906l9.7227-5.6133z" fill-rule="evenodd"/>
</svg>