<svg xmlns="http://www.w3.org/2000/svg" xmlns:xlink="http://www.w3.org/1999/xlink" version="1.1" x="0px" y="0px" viewBox="0 0 32 40" enable-background="new 0 0 32 32" xml:space="preserve"><path d="M27,2h-5c-0.5527344,0-1,0.4477539-1,1v26c0,0.5527344,0.4472656,1,1,1h5c0.5527344,0,1-0.4472656,1-1V3  C28,2.4477539,27.5527344,2,27,2z M26,28h-3V4h3V28z M5.6806641,2.2670898  C5.3881836,1.9956055,4.9648438,1.9243164,4.6000977,2.0834961C4.2358398,2.2421875,4,2.6020508,4,3v26  c0,0.3974609,0.2358398,0.7578125,0.6000977,0.9169922C4.7290039,29.9726563,4.8647461,30,5,30  c0.2475586,0,0.4916992-0.0917969,0.6806641-0.2675781l14-12.9995117C19.8837891,16.543457,20,16.277832,20,16  s-0.1162109-0.543457-0.3193359-0.7329102L5.6806641,2.2670898z M6,26.7070313V5.2929688L17.5302734,16L6,26.7070313z"/></svg>